<svg xmlns="http://www.w3.org/2000/svg" width="20.055" height="22" viewBox="0 0 20.055 22">
  <path id="BAG" d="M20.052,21.441,17.276,5.394A.477.477,0,0,0,16.8,5H14.061V3.75A3.9,3.9,0,0,0,10.029,0,3.9,3.9,0,0,0,6,3.75V5H3.254a.479.479,0,0,0-.471.4L.012,21.441A.478.478,0,0,0,.481,22h19.1a.478.478,0,0,0,.47-.559ZM6.956,3.75A2.948,2.948,0,0,1,10.031.957,2.948,2.948,0,0,1,13.106,3.75V5H6.954V3.75ZM1.048,21.043,3.659,5.953H6V8.046a1.193,1.193,0,1,0,.955,0V5.953h6.152V8.046a1.193,1.193,0,1,0,.955,0V5.953H16.4l2.612,15.091Z" transform="translate(-0.005)" fill="#29003a"/>
</svg>
