<svg xmlns="http://www.w3.org/2000/svg" width="107.437" height="14.65" viewBox="0 0 107.437 14.65">
  <g id="Decoris_P" data-name="Decoris P" transform="translate(0 0.01)">
    <path id="Path_53602" data-name="Path 53602" d="M12.413,7.475A8.033,8.033,0,0,1,11.9,10.4a6.355,6.355,0,0,1-3.668,3.714,7.793,7.793,0,0,1-2.877.517H0V.31H5.357A7.67,7.67,0,0,1,8.234.827a6.386,6.386,0,0,1,2.226,1.457A6.529,6.529,0,0,1,11.9,4.546,8.033,8.033,0,0,1,12.413,7.475Zm-1.989,0a7.147,7.147,0,0,0-.362-2.361A5,5,0,0,0,9.045,3.353a4.312,4.312,0,0,0-1.6-1.1,5.538,5.538,0,0,0-2.087-.377H1.947V13.059H5.357a5.519,5.519,0,0,0,2.087-.377,4.449,4.449,0,0,0,1.6-1.1,4.877,4.877,0,0,0,1.018-1.751A7.24,7.24,0,0,0,10.424,7.475Z" transform="translate(0 -0.155)" fill="#29003a"/>
    <path id="Path_53603" data-name="Path 53603" d="M45.7.31V1.891H38.827V6.648H44.4V8.167H38.827v4.887H45.7v1.581H36.88V.31Z" transform="translate(-17.829 -0.155)" fill="#29003a"/>
    <path id="Path_53604" data-name="Path 53604" d="M76.406,11.52a.394.394,0,0,1,.289.129l.759.832a6.1,6.1,0,0,1-2.133,1.591,7.237,7.237,0,0,1-3.022.568,7.134,7.134,0,0,1-2.81-.537,6.171,6.171,0,0,1-2.149-1.5,6.779,6.779,0,0,1-1.379-2.314,8.676,8.676,0,0,1-.491-2.97A8.1,8.1,0,0,1,66,4.35,6.846,6.846,0,0,1,67.469,2.03a6.617,6.617,0,0,1,2.273-1.5A7.752,7.752,0,0,1,72.666-.01a6.855,6.855,0,0,1,2.722.491,6.96,6.96,0,0,1,2.035,1.328l-.63.889a.612.612,0,0,1-.16.165.453.453,0,0,1-.258.067.511.511,0,0,1-.274-.093c-.1-.062-.212-.139-.346-.232s-.289-.191-.47-.3a3.918,3.918,0,0,0-.641-.3,5.235,5.235,0,0,0-.858-.232,6.1,6.1,0,0,0-1.131-.093,5.443,5.443,0,0,0-2.1.393A4.664,4.664,0,0,0,68.91,3.2a5.2,5.2,0,0,0-1.074,1.777,6.738,6.738,0,0,0-.382,2.35,7.073,7.073,0,0,0,.382,2.387,5.185,5.185,0,0,0,1.049,1.772,4.383,4.383,0,0,0,1.576,1.105,5.03,5.03,0,0,0,1.958.382A8.54,8.54,0,0,0,73.57,12.9a4.687,4.687,0,0,0,.945-.238,4.4,4.4,0,0,0,.811-.4,5.713,5.713,0,0,0,.754-.584.515.515,0,0,1,.331-.15Z" transform="translate(-31.65 0)" fill="#29003a"/>
    <path id="Path_53605" data-name="Path 53605" d="M113.883,7.325a8.254,8.254,0,0,1-.511,2.955,6.753,6.753,0,0,1-1.441,2.314,6.447,6.447,0,0,1-2.232,1.5,7.519,7.519,0,0,1-2.882.537,7.379,7.379,0,0,1-2.877-.537,6.425,6.425,0,0,1-2.226-1.5,6.753,6.753,0,0,1-1.441-2.314,8.234,8.234,0,0,1-.511-2.955,8.254,8.254,0,0,1,.511-2.955,6.825,6.825,0,0,1,1.441-2.319A6.5,6.5,0,0,1,103.939.537,7.4,7.4,0,0,1,106.816,0,7.519,7.519,0,0,1,109.7.537a6.424,6.424,0,0,1,2.232,1.514,6.825,6.825,0,0,1,1.441,2.319,8.254,8.254,0,0,1,.511,2.955Zm-1.989,0a7.232,7.232,0,0,0-.362-2.371,4.97,4.97,0,0,0-1.018-1.772,4.473,4.473,0,0,0-1.6-1.116,5.842,5.842,0,0,0-4.184,0,4.455,4.455,0,0,0-1.607,1.116A4.947,4.947,0,0,0,102.1,4.954a7.211,7.211,0,0,0-.362,2.371,7.157,7.157,0,0,0,.362,2.366,4.956,4.956,0,0,0,1.023,1.767,4.4,4.4,0,0,0,1.607,1.111,5.842,5.842,0,0,0,4.184,0,4.423,4.423,0,0,0,1.6-1.111,4.992,4.992,0,0,0,1.018-1.767A7.157,7.157,0,0,0,111.894,7.325Z" transform="translate(-48.227 -0.005)" fill="#29003a"/>
    <path id="Path_53606" data-name="Path 53606" d="M142.287,8.658v5.977H140.36V.31h4.05a8.983,8.983,0,0,1,2.35.274,4.422,4.422,0,0,1,1.632.8,3.188,3.188,0,0,1,.956,1.255,4.194,4.194,0,0,1,.31,1.643,4.121,4.121,0,0,1-.238,1.421,3.774,3.774,0,0,1-.692,1.183,4.161,4.161,0,0,1-1.111.894,5.384,5.384,0,0,1-1.483.558,2.038,2.038,0,0,1,.641.61l4.179,5.687h-1.72a.847.847,0,0,1-.78-.408L144.735,9.1a1.108,1.108,0,0,0-.372-.346,1.3,1.3,0,0,0-.6-.1H142.3Zm0-1.41h2.03a4.827,4.827,0,0,0,1.493-.207,3.038,3.038,0,0,0,1.08-.579,2.435,2.435,0,0,0,.656-.894,2.864,2.864,0,0,0,.222-1.152,2.275,2.275,0,0,0-.847-1.927,4.111,4.111,0,0,0-2.516-.651h-2.118V7.248Z" transform="translate(-67.854 -0.155)" fill="#29003a"/>
    <path id="Path_53607" data-name="Path 53607" d="M175.267,14.635H173.33V.31h1.937V14.635Z" transform="translate(-83.792 -0.155)" fill="#29003a"/>
    <path id="Path_53608" data-name="Path 53608" d="M198.5,2.392a.762.762,0,0,1-.191.222.415.415,0,0,1-.258.077.684.684,0,0,1-.393-.17c-.15-.114-.341-.238-.568-.377a4.334,4.334,0,0,0-.832-.377,3.557,3.557,0,0,0-1.173-.17,3.439,3.439,0,0,0-1.152.176,2.48,2.48,0,0,0-.837.475,1.988,1.988,0,0,0-.506.7,2.23,2.23,0,0,0-.17.873,1.63,1.63,0,0,0,.294,1,2.576,2.576,0,0,0,.78.677,5.988,5.988,0,0,0,1.1.486c.408.134.832.279,1.26.424s.847.31,1.26.5a4.456,4.456,0,0,1,1.1.692,3.154,3.154,0,0,1,.78,1.028,3.442,3.442,0,0,1,.294,1.5,4.848,4.848,0,0,1-.32,1.762,4.113,4.113,0,0,1-.935,1.436,4.342,4.342,0,0,1-1.508.961,5.566,5.566,0,0,1-2.035.351,6.247,6.247,0,0,1-2.536-.506A5.878,5.878,0,0,1,190,12.76l.558-.919a.75.75,0,0,1,.2-.186.438.438,0,0,1,.253-.072.777.777,0,0,1,.48.227,7.781,7.781,0,0,0,.677.5,4.957,4.957,0,0,0,.981.5,3.874,3.874,0,0,0,1.405.222,3.636,3.636,0,0,0,1.229-.191,2.507,2.507,0,0,0,.914-.537,2.378,2.378,0,0,0,.573-.827,2.739,2.739,0,0,0,.2-1.069,1.788,1.788,0,0,0-.294-1.064,2.4,2.4,0,0,0-.775-.692,5.465,5.465,0,0,0-1.1-.475l-1.26-.4a12.36,12.36,0,0,1-1.26-.475,4.124,4.124,0,0,1-1.1-.7,3.244,3.244,0,0,1-.775-1.074,3.83,3.83,0,0,1-.294-1.6A3.831,3.831,0,0,1,191.767,1.2a4.1,4.1,0,0,1,1.384-.878,5.028,5.028,0,0,1,1.9-.331,6.187,6.187,0,0,1,2.19.377,5.05,5.05,0,0,1,1.73,1.1l-.47.919Z" transform="translate(-91.851)" fill="#29003a"/>
  </g>
</svg>
