<svg id="Group_8569" data-name="Group 8569" xmlns="http://www.w3.org/2000/svg" width="28.34" height="28.35" viewBox="0 0 28.34 28.35">
  <path id="Path_40825" data-name="Path 40825" d="M25.51,28.35a2.83,2.83,0,1,1,2.83-2.83,2.827,2.827,0,0,1-2.83,2.83h0m0-11.34a2.83,2.83,0,1,1,2.83-2.83,2.827,2.827,0,0,1-2.83,2.83h0m0-11.34a2.835,2.835,0,1,0,0-.01h0M14.17,28.35A2.83,2.83,0,1,1,17,25.52a2.827,2.827,0,0,1-2.83,2.83h0m0-11.34A2.83,2.83,0,1,1,17,14.18h0a2.827,2.827,0,0,1-2.83,2.83m0-11.34A2.83,2.83,0,1,1,17,2.84h0a2.827,2.827,0,0,1-2.83,2.83h0M2.83,28.35a2.83,2.83,0,1,1,2.83-2.83,2.827,2.827,0,0,1-2.83,2.83h0m0-11.34a2.83,2.83,0,1,1,2.83-2.83h0a2.827,2.827,0,0,1-2.83,2.83m0-11.34A2.835,2.835,0,1,1,5.66,2.83h0A2.827,2.827,0,0,1,2.83,5.66h0" fill="#29003a" fill-rule="evenodd"/>
</svg>
