<svg id="Group_8729" data-name="Group 8729" xmlns="http://www.w3.org/2000/svg" width="19.322" height="22" viewBox="0 0 19.322 22">
  <path id="Path_38171" data-name="Path 38171" d="M12.457,12.474A6.237,6.237,0,1,0,6.22,6.237a6.239,6.239,0,0,0,6.237,6.237m0-11.088h0A4.851,4.851,0,1,1,7.606,6.237h0a4.855,4.855,0,0,1,4.851-4.851" transform="translate(-2.799 0)" fill="#29003a"/>
  <path id="Path_38172" data-name="Path 38172" d="M9.663,23.95A9.7,9.7,0,0,0,0,32.778H1.391a8.316,8.316,0,0,1,16.539,0h1.391A9.7,9.7,0,0,0,9.663,23.95" transform="translate(0 -10.778)" fill="#29003a"/>
</svg>
