<svg xmlns="http://www.w3.org/2000/svg" xmlns:xlink="http://www.w3.org/1999/xlink" width="20" height="98.076" viewBox="0 0 20 98.076">
  <defs>
    <clipPath id="clip-path">
      <rect id="Rectangle_15044" data-name="Rectangle 15044" width="20" height="20" fill="#29003a"/>
    </clipPath>
    <clipPath id="clip-path-2">
      <rect id="Rectangle_22738" data-name="Rectangle 22738" width="20" height="18.076" fill="none"/>
    </clipPath>
  </defs>
  <g id="Group_51579" data-name="Group 51579" transform="translate(-45.982 -194)">
    <g id="Group_9052" data-name="Group 9052" transform="translate(45.982 194)">
      <g id="Group_33688" data-name="Group 33688" transform="translate(0 0)" clip-path="url(#clip-path)">
        <path id="Path_45984" data-name="Path 45984" d="M16.875,13.75a3.115,3.115,0,0,0-2.247.954L6.211,10.5a3.07,3.07,0,0,0,0-.991L14.628,5.3a3.124,3.124,0,1,0-.878-2.171,3.185,3.185,0,0,0,.039.5L5.371,7.829a3.125,3.125,0,1,0,0,4.342l8.418,4.209a3.085,3.085,0,0,0-.039.495,3.125,3.125,0,1,0,3.125-3.125" transform="translate(0 0)" fill="#29003a"/>
      </g>
    </g>
    <g id="Group_51573" data-name="Group 51573" transform="translate(45.982 234)">
      <g id="Group_51572" data-name="Group 51572" transform="translate(0 0)" clip-path="url(#clip-path-2)">
        <path id="Path_53609" data-name="Path 53609" d="M9.941,18.075,1.633,9.786A5.741,5.741,0,0,1,9.757,1.672q.116.119.224.243c.07-.079.143-.157.216-.231a5.74,5.74,0,1,1,8.128,8.109l0,0ZM5.732.81A4.954,4.954,0,0,0,2.191,9.233l7.752,7.734L17.77,9.236a4.955,4.955,0,0,0-7.014-7,5.19,5.19,0,0,0-.461.538L9.975,3.2l-.314-.432A4.9,4.9,0,0,0,9.2,2.227,4.932,4.932,0,0,0,5.732.81" transform="translate(0 0)" fill="#29003a"/>
      </g>
    </g>
    <g id="Group_33689" data-name="Group 33689" transform="translate(45.982 272.076)">
      <g id="Group_33684" data-name="Group 33684" transform="translate(0 0)">
        <g id="Group_33683" data-name="Group 33683" clip-path="url(#clip-path)">
          <path id="Path_45981" data-name="Path 45981" d="M20.3,10.212a2.913,2.913,0,0,0-1.02-.7,3.4,3.4,0,0,0-1.317-.246,3.337,3.337,0,0,0-1.308.249,2.962,2.962,0,0,0-.813.5v.669A2.356,2.356,0,0,1,16,10.5a2.433,2.433,0,0,1,.863-.6,2.844,2.844,0,0,1,1.1-.208,2.9,2.9,0,0,1,1.116.208,2.375,2.375,0,0,1,.86.6,2.751,2.751,0,0,1,.553.958A4.246,4.246,0,0,1,20.5,14a2.753,2.753,0,0,1-.553.956,2.366,2.366,0,0,1-.86.6,2.919,2.919,0,0,1-1.116.205,2.87,2.87,0,0,1-1.1-.205,2.406,2.406,0,0,1-.863-.6,2.356,2.356,0,0,1-.154-.191v.674a2.97,2.97,0,0,0,.813.5,3.617,3.617,0,0,0,2.625,0,2.926,2.926,0,0,0,1.02-.7,3.136,3.136,0,0,0,.661-1.092,4.43,4.43,0,0,0,0-2.847,3.189,3.189,0,0,0-.661-1.1" transform="translate(-4.665 -2.728)" fill="#29003a"/>
          <path id="Path_45982" data-name="Path 45982" d="M10.648,9.278a.17.17,0,0,0-.079.077L7.833,14.069a1.932,1.932,0,0,0-.126.288c-.02-.051-.04-.1-.06-.151a1.321,1.321,0,0,0-.07-.142L4.916,9.355l0-.006v.833L7.479,14.74a.207.207,0,0,0,.191.126h.076a.213.213,0,0,0,.191-.126L10.678,10c-.009.089-.014.179-.015.268v5.778h.427V9.264h-.334a.329.329,0,0,0-.108.014" transform="translate(-1.446 -2.728)" fill="#29003a"/>
        </g>
      </g>
      <g id="Group_33686" data-name="Group 33686" transform="translate(0 0)">
        <g id="Group_33685" data-name="Group 33685" clip-path="url(#clip-path)">
          <path id="Path_45983" data-name="Path 45983" d="M1,4.5a.5.5,0,1,1-1,0v-2A2.5,2.5,0,0,1,2.5,0h2a.5.5,0,0,1,0,1h-2A1.5,1.5,0,0,0,1,2.5ZM15.5,1a.5.5,0,0,1,0-1h2A2.5,2.5,0,0,1,20,2.5h0v2a.5.5,0,1,1-1,0v-2A1.5,1.5,0,0,0,17.5,1ZM4.5,19a.5.5,0,0,1,0,1h-2A2.5,2.5,0,0,1,0,17.5H0v-2a.5.5,0,1,1,1,0v2A1.5,1.5,0,0,0,2.5,19ZM19,15.5a.5.5,0,1,1,1,0v2A2.5,2.5,0,0,1,17.5,20h-2a.5.5,0,0,1,0-1h2A1.5,1.5,0,0,0,19,17.5Z" transform="translate(0 0)" fill="#29003a"/>
        </g>
      </g>
    </g>
  </g>
</svg>
