<svg xmlns="http://www.w3.org/2000/svg" xmlns:xlink="http://www.w3.org/1999/xlink" width="76.721" height="15" viewBox="0 0 76.721 15">
  <defs>
    <clipPath id="clip-path">
      <rect id="Rectangle_15044" data-name="Rectangle 15044" width="15" height="15" fill="#29003a"/>
    </clipPath>
    <clipPath id="clip-path-4">
      <rect id="Rectangle_22738" data-name="Rectangle 22738" width="16.597" height="15" fill="none"/>
    </clipPath>
  </defs>
  <g id="Group_51575" data-name="Group 51575" transform="translate(-1206.705 -150)">
    <g id="Group_9052" data-name="Group 9052" transform="translate(1238.302 150)">
      <g id="Group_33688" data-name="Group 33688" transform="translate(0 0)" clip-path="url(#clip-path)">
        <path id="Path_45984" data-name="Path 45984" d="M12.656,10.313a2.336,2.336,0,0,0-1.685.715L4.658,7.871a2.3,2.3,0,0,0,0-.743l6.313-3.157a2.343,2.343,0,1,0-.659-1.628,2.389,2.389,0,0,0,.029.371L4.028,5.872a2.344,2.344,0,1,0,0,3.257l6.314,3.157a2.314,2.314,0,0,0-.029.371,2.344,2.344,0,1,0,2.344-2.344" transform="translate(0 0)" fill="#29003a"/>
      </g>
    </g>
    <g id="Group_33689" data-name="Group 33689" transform="translate(1268.426 150)">
      <g id="Group_33684" data-name="Group 33684" transform="translate(0 0)">
        <g id="Group_33683" data-name="Group 33683" clip-path="url(#clip-path)">
          <path id="Path_45981" data-name="Path 45981" d="M19.189,9.975a2.185,2.185,0,0,0-.765-.527,2.548,2.548,0,0,0-.988-.185,2.5,2.5,0,0,0-.981.187,2.222,2.222,0,0,0-.61.378v.5a1.767,1.767,0,0,1,.115-.143,1.825,1.825,0,0,1,.647-.451,2.133,2.133,0,0,1,.828-.156,2.172,2.172,0,0,1,.837.156,1.781,1.781,0,0,1,.645.451,2.064,2.064,0,0,1,.415.719,3.185,3.185,0,0,1,0,1.913,2.065,2.065,0,0,1-.415.717,1.775,1.775,0,0,1-.645.449,2.189,2.189,0,0,1-.837.154,2.153,2.153,0,0,1-.828-.154,1.8,1.8,0,0,1-.647-.449,1.767,1.767,0,0,1-.115-.143V13.9a2.227,2.227,0,0,0,.61.376,2.713,2.713,0,0,0,1.969,0,2.195,2.195,0,0,0,.765-.524,2.352,2.352,0,0,0,.5-.819,3.322,3.322,0,0,0,0-2.135,2.392,2.392,0,0,0-.5-.821" transform="translate(-7.46 -4.362)" fill="#29003a"/>
          <path id="Path_45982" data-name="Path 45982" d="M9.214,9.274a.128.128,0,0,0-.059.058L7.1,12.868a1.449,1.449,0,0,0-.094.216c-.015-.038-.03-.076-.045-.113a.991.991,0,0,0-.052-.106l-2-3.532,0,0v.624l1.926,3.419a.155.155,0,0,0,.143.094h.057a.16.16,0,0,0,.143-.094L9.236,9.814c-.007.067-.011.134-.011.2v4.333h.32V9.264h-.25a.247.247,0,0,0-.081.011" transform="translate(-2.312 -4.362)" fill="#29003a"/>
        </g>
      </g>
      <g id="Group_33686" data-name="Group 33686" transform="translate(0 0)">
        <g id="Group_33685" data-name="Group 33685" clip-path="url(#clip-path)">
          <path id="Path_45983" data-name="Path 45983" d="M.75,3.375a.375.375,0,1,1-.75,0v-1.5A1.874,1.874,0,0,1,1.874,0h1.5a.375.375,0,0,1,0,.75h-1.5A1.125,1.125,0,0,0,.75,1.875ZM11.625.75a.375.375,0,0,1,0-.75h1.5A1.874,1.874,0,0,1,15,1.874h0v1.5a.375.375,0,1,1-.75,0v-1.5A1.125,1.125,0,0,0,13.125.75Zm-8.25,13.5a.375.375,0,0,1,0,.75h-1.5A1.874,1.874,0,0,1,0,13.126H0v-1.5a.375.375,0,1,1,.75,0v1.5A1.126,1.126,0,0,0,1.875,14.25ZM14.25,11.625a.375.375,0,1,1,.75,0v1.5A1.874,1.874,0,0,1,13.126,15h-1.5a.375.375,0,0,1,0-.75h1.5a1.126,1.126,0,0,0,1.125-1.125Z" transform="translate(0 0)" fill="#29003a"/>
        </g>
      </g>
    </g>
    <g id="Group_51573" data-name="Group 51573" transform="translate(1206.705 150)">
      <g id="Group_51572" data-name="Group 51572" clip-path="url(#clip-path-4)">
        <path id="Path_53609" data-name="Path 53609" d="M8.249,15,1.355,8.121A4.764,4.764,0,0,1,8.1,1.387q.1.1.186.2c.058-.066.118-.13.18-.192a4.764,4.764,0,1,1,6.745,6.729l0,0ZM4.757.672a4.111,4.111,0,0,0-2.939,6.99L8.251,14.08l6.495-6.416A4.112,4.112,0,0,0,8.925,1.856a4.307,4.307,0,0,0-.383.447l-.265.356L8.018,2.3a4.066,4.066,0,0,0-.382-.451A4.093,4.093,0,0,0,4.757.672" transform="translate(0 0)" fill="#29003a"/>
      </g>
    </g>
  </g>
</svg>
